<svg xmlns="http://www.w3.org/2000/svg" width="1280" height="800" viewBox="0 0 1280 800">
  <defs>
    <linearGradient id="bg" x1="0" y1="0" x2="1" y2="1">
      <stop offset="0%" stop-color="#EFF6FF"/>
      <stop offset="100%" stop-color="#DBEAFE"/>
    </linearGradient>
    <linearGradient id="header" x1="0" y1="0" x2="1" y2="1">
      <stop offset="0%" stop-color="#1D4ED8"/>
      <stop offset="100%" stop-color="#1E3A8A"/>
    </linearGradient>
    <linearGradient id="btn" x1="0" y1="0" x2="1" y2="0">
      <stop offset="0%" stop-color="#2563EB"/>
      <stop offset="100%" stop-color="#1D4ED8"/>
    </linearGradient>
  </defs>

  <!-- Background -->
  <rect width="1280" height="800" fill="url(#bg)"/>

  <!-- Grid pattern -->
  <g opacity="0.06">
    <line x1="0" y1="0" x2="0" y2="800" stroke="#1E3A8A" stroke-width="1" transform="translate(40,0)"/>
    <line x1="0" y1="0" x2="0" y2="800" stroke="#1E3A8A" stroke-width="1" transform="translate(80,0)"/>
    <line x1="0" y1="0" x2="0" y2="800" stroke="#1E3A8A" stroke-width="1" transform="translate(120,0)"/>
    <line x1="0" y1="0" x2="1280" y2="0" stroke="#1E3A8A" stroke-width="1" transform="translate(0,40)"/>
    <line x1="0" y1="0" x2="1280" y2="0" stroke="#1E3A8A" stroke-width="1" transform="translate(0,80)"/>
  </g>

  <!-- Left side: Text content -->
  <text x="100" y="260" font-family="system-ui, sans-serif" font-size="52" font-weight="800" fill="#0F172A">CIPWE</text>
  <text x="100" y="320" font-family="system-ui, sans-serif" font-size="28" font-weight="600" fill="#475569">AI Readiness Audit</text>
  <text x="100" y="380" font-family="system-ui, sans-serif" font-size="20" fill="#64748B">Audit any website's AI readiness score</text>
  <text x="100" y="410" font-family="system-ui, sans-serif" font-size="20" fill="#64748B">in one click. 19 rules, 6 categories, 100 points.</text>

  <!-- Feature pills -->
  <rect x="100" y="450" width="160" height="36" rx="18" fill="#DBEAFE"/>
  <text x="180" y="474" font-family="system-ui, sans-serif" font-size="14" font-weight="600" fill="#1D4ED8" text-anchor="middle">⚡ One Click Audit</text>

  <rect x="275" y="450" width="140" height="36" rx="18" fill="#DBEAFE"/>
  <text x="345" y="474" font-family="system-ui, sans-serif" font-size="14" font-weight="600" fill="#1D4ED8" text-anchor="middle">📊 19 Rules</text>

  <rect x="430" y="450" width="160" height="36" rx="18" fill="#DBEAFE"/>
  <text x="510" y="474" font-family="system-ui, sans-serif" font-size="14" font-weight="600" fill="#1D4ED8" text-anchor="middle">⚛️ SPA Support</text>

  <!-- Right side: Extension mockup -->
  <g transform="translate(720, 100)">
    <!-- Phone/popup shadow -->
    <rect x="-6" y="-6" width="442" height="612" rx="22" fill="rgba(0,0,0,0.08)"/>
    <!-- Popup container -->
    <rect width="430" height="600" rx="16" fill="white" stroke="#E5E7EB" stroke-width="1"/>

    <!-- Header -->
    <rect width="430" height="130" rx="16" fill="url(#header)"/>
    <rect y="16" width="430" height="114" fill="url(#header)"/>

    <!-- Score ring -->
    <circle cx="80" cy="70" r="40" fill="none" stroke="rgba(255,255,255,0.15)" stroke-width="7"/>
    <circle cx="80" cy="70" r="40" fill="none" stroke="white" stroke-width="7" stroke-linecap="round" stroke-dasharray="200 52" transform="rotate(-90, 80, 70)"/>
    <text x="80" y="82" text-anchor="middle" font-family="system-ui, sans-serif" font-size="28" font-weight="800" fill="white">85</text>

    <!-- Grade -->
    <rect x="150" y="42" width="50" height="26" rx="13" fill="rgba(255,255,255,0.2)"/>
    <text x="175" y="60" text-anchor="middle" font-family="system-ui, sans-serif" font-size="14" font-weight="700" fill="white">A-</text>
    <text x="150" y="85" font-family="system-ui, sans-serif" font-size="13" fill="rgba(255,255,255,0.8)">85/100</text>
    <text x="150" y="105" font-family="system-ui, sans-serif" font-size="12" fill="rgba(255,255,255,0.6)">14 passed · 5 failed</text>

    <!-- Category section -->
    <text x="20" y="160" font-family="system-ui, sans-serif" font-size="11" font-weight="700" fill="#6B7280" letter-spacing="0.8">CATEGORY BREAKDOWN</text>

    <!-- Category bars -->
    <g transform="translate(20, 175)">
      <!-- Structured Data -->
      <text x="0" y="14" font-family="system-ui, sans-serif" font-size="12" font-weight="500" fill="#374151">Structured Data</text>
      <rect x="160" y="4" width="140" height="6" rx="3" fill="#E5E7EB"/>
      <rect x="160" y="4" width="130" height="6" rx="3" fill="#3B82F6"/>
      <text x="320" y="14" font-family="system-ui, sans-serif" font-size="11" font-weight="600" fill="#6B7280">28/30</text>
      <text x="370" y="14" font-family="system-ui, sans-serif" font-size="11" fill="#9CA3AF">93%</text>

      <!-- Semantic HTML -->
      <text x="0" y="40" font-family="system-ui, sans-serif" font-size="12" font-weight="500" fill="#374151">Semantic HTML</text>
      <rect x="160" y="30" width="140" height="6" rx="3" fill="#E5E7EB"/>
      <rect x="160" y="30" width="126" height="6" rx="3" fill="#3B82F6"/>
      <text x="320" y="40" font-family="system-ui, sans-serif" font-size="11" font-weight="600" fill="#6B7280">18/20</text>
      <text x="370" y="40" font-family="system-ui, sans-serif" font-size="11" fill="#9CA3AF">90%</text>

      <!-- Metadata -->
      <text x="0" y="66" font-family="system-ui, sans-serif" font-size="12" font-weight="500" fill="#374151">Metadata</text>
      <rect x="160" y="56" width="140" height="6" rx="3" fill="#E5E7EB"/>
      <rect x="160" y="56" width="100" height="6" rx="3" fill="#60A5FA"/>
      <text x="320" y="66" font-family="system-ui, sans-serif" font-size="11" font-weight="600" fill="#6B7280">10/15</text>
      <text x="370" y="66" font-family="system-ui, sans-serif" font-size="11" fill="#9CA3AF">67%</text>

      <!-- Crawl Signals -->
      <text x="0" y="92" font-family="system-ui, sans-serif" font-size="12" font-weight="500" fill="#374151">Crawl Signals</text>
      <rect x="160" y="82" width="140" height="6" rx="3" fill="#E5E7EB"/>
      <rect x="160" y="82" width="112" height="6" rx="3" fill="#60A5FA"/>
      <text x="320" y="92" font-family="system-ui, sans-serif" font-size="11" font-weight="600" fill="#6B7280">12/15</text>
      <text x="370" y="92" font-family="system-ui, sans-serif" font-size="11" fill="#9CA3AF">80%</text>

      <!-- Content Clarity -->
      <text x="0" y="118" font-family="system-ui, sans-serif" font-size="12" font-weight="500" fill="#374151">Content Clarity</text>
      <rect x="160" y="108" width="140" height="6" rx="3" fill="#E5E7EB"/>
      <rect x="160" y="108" width="98" height="6" rx="3" fill="#F59E0B"/>
      <text x="320" y="118" font-family="system-ui, sans-serif" font-size="11" font-weight="600" fill="#6B7280">7/10</text>
      <text x="370" y="118" font-family="system-ui, sans-serif" font-size="11" fill="#9CA3AF">70%</text>

      <!-- Agent Signals -->
      <text x="0" y="144" font-family="system-ui, sans-serif" font-size="12" font-weight="500" fill="#374151">Agent Signals</text>
      <rect x="160" y="134" width="140" height="6" rx="3" fill="#E5E7EB"/>
      <rect x="160" y="134" width="126" height="6" rx="3" fill="#3B82F6"/>
      <text x="320" y="144" font-family="system-ui, sans-serif" font-size="11" font-weight="600" fill="#6B7280">9/10</text>
      <text x="370" y="144" font-family="system-ui, sans-serif" font-size="11" fill="#9CA3AF">90%</text>
    </g>

    <!-- Tabs -->
    <line x1="0" y1="340" x2="430" y2="340" stroke="#E5E7EB" stroke-width="1"/>
    <text x="80" y="365" text-anchor="middle" font-family="system-ui, sans-serif" font-size="12" font-weight="600" fill="#2563EB">Issues (5)</text>
    <line x1="40" y1="372" x2="120" y2="372" stroke="#2563EB" stroke-width="2"/>
    <text x="215" y="365" text-anchor="middle" font-family="system-ui, sans-serif" font-size="12" font-weight="600" fill="#9CA3AF">Passed (14)</text>
    <text x="350" y="365" text-anchor="middle" font-family="system-ui, sans-serif" font-size="12" font-weight="600" fill="#9CA3AF">All Rules</text>

    <!-- Rule cards -->
    <g transform="translate(16, 385)">
      <!-- Rule 1 -->
      <rect width="398" height="56" rx="8" fill="white" stroke="#E5E7EB" stroke-width="1"/>
      <circle cx="24" cy="28" r="10" fill="#FEF2F2"/>
      <text x="24" y="32" text-anchor="middle" font-family="system-ui, sans-serif" font-size="10" font-weight="700" fill="#EF4444">✗</text>
      <text x="44" y="22" font-family="system-ui, sans-serif" font-size="12" font-weight="600" fill="#1F2937">FAQ Schema</text>
      <text x="44" y="40" font-family="system-ui, sans-serif" font-size="11" fill="#6B7280">No FAQPage schema found</text>
      <rect x="330" y="14" width="48" height="22" rx="11" fill="#FEF2F2"/>
      <text x="354" y="30" text-anchor="middle" font-family="system-ui, sans-serif" font-size="11" font-weight="700" fill="#EF4444">0/6</text>

      <!-- Rule 2 -->
      <rect y="64" width="398" height="56" rx="8" fill="white" stroke="#E5E7EB" stroke-width="1"/>
      <circle cx="24" cy="92" r="10" fill="#FEF2F2"/>
      <text x="24" y="96" text-anchor="middle" font-family="system-ui, sans-serif" font-size="10" font-weight="700" fill="#EF4444">✗</text>
      <text x="44" y="86" font-family="system-ui, sans-serif" font-size="12" font-weight="600" fill="#1F2937">OpenGraph Tags</text>
      <text x="44" y="104" font-family="system-ui, sans-serif" font-size="11" fill="#6B7280">Missing og:image tag</text>
      <rect x="330" y="78" width="48" height="22" rx="11" fill="#FFFBEB"/>
      <text x="354" y="94" text-anchor="middle" font-family="system-ui, sans-serif" font-size="11" font-weight="700" fill="#F59E0B">3/5</text>

      <!-- Rule 3 -->
      <rect y="128" width="398" height="56" rx="8" fill="white" stroke="#E5E7EB" stroke-width="1"/>
      <circle cx="24" cy="156" r="10" fill="#FEF2F2"/>
      <text x="24" y="160" text-anchor="middle" font-family="system-ui, sans-serif" font-size="10" font-weight="700" fill="#EF4444">✗</text>
      <text x="44" y="150" font-family="system-ui, sans-serif" font-size="12" font-weight="600" fill="#1F2937">Canonical URL</text>
      <text x="44" y="168" font-family="system-ui, sans-serif" font-size="11" fill="#6B7280">No canonical URL found</text>
      <rect x="330" y="142" width="48" height="22" rx="11" fill="#FEF2F2"/>
      <text x="354" y="158" text-anchor="middle" font-family="system-ui, sans-serif" font-size="11" font-weight="700" fill="#EF4444">0/5</text>
    </g>
  </g>
</svg>
